HIERARCHY
ROOT pelvis
{
  OFFSET 0 100 0
  CHANNELS 6 Xposition Yposition Zposition Zrotation Xrotation Yrotation
  JOINT pelvis_right_femur
  {
    OFFSET -10.78128 -3.44521 -0.5502486
    CHANNELS 3 Zrotation Xrotation Yrotation
    JOINT right_femur_tibia
    {
      OFFSET -0.8047443 -44.0398 -0.1307829
      CHANNELS 3 Zrotation Xrotation Yrotation
      JOINT right_tibia_foot
      {
        OFFSET 3.006224 -47.83518 -5
        CHANNELS 3 Zrotation Xrotation Yrotation
        End Site
        {
          OFFSET 0 -5 15
        }
      }
    }
  }
  JOINT pelvis_left_femur
  {
    OFFSET 10.78128 -3.44521 -0.5502486
    CHANNELS 3 Zrotation Xrotation Yrotation
    JOINT left_femur_tibia
    {
      OFFSET 0.8047443 -44.0398 -0.1307829
      CHANNELS 3 Zrotation Xrotation Yrotation
      JOINT left_tibia_foot
      {
        OFFSET -4.370144 -48.10324 -4.275266
        CHANNELS 3 Zrotation Xrotation Yrotation
        End Site
        {
          OFFSET 0 -5 15
        }
      }
    }
  }
  JOINT pelvis_spine1
  {
    OFFSET 0 6.468898 -3.129235
    CHANNELS 3 Zrotation Xrotation Yrotation
    JOINT spine1
    {
      OFFSET 0 23.15396 4.99043
      CHANNELS 3 Zrotation Xrotation Yrotation
      JOINT spine2
      {
        OFFSET 0 20.79997 -5.064912
        CHANNELS 3 Zrotation Xrotation Yrotation
        JOINT neck
        {
          OFFSET 0 14.38658 9.616178
          CHANNELS 3 Zrotation Xrotation Yrotation
          End Site
          {
            OFFSET 0 20 0
          }
        }
      }
      JOINT right_manubrium
      {
        OFFSET -5.722621 16.35077 3.967754
        CHANNELS 3 Zrotation Xrotation Yrotation
        JOINT right_clavicle
        {
          OFFSET -13.16364 1.694482 -4.693211
          CHANNELS 3 Zrotation Xrotation Yrotation
          JOINT right_humerus
          {
            OFFSET -28.5034 -0.3100689 -2.792744
            CHANNELS 3 Zrotation Xrotation Yrotation
            JOINT right_radius
            {
              OFFSET -25.15693 0.02248979 -1.271978
              CHANNELS 3 Zrotation Xrotation Yrotation
              End Site
              {
                OFFSET -15 0 0
              }
            }
          }
        }
      }
      JOINT left_manubrium
      {
        OFFSET 5.722621 16.35077 3.967754
        CHANNELS 3 Zrotation Xrotation Yrotation
        JOINT left_clavicle
        {
          OFFSET 13.16364 1.694482 -4.693211
          CHANNELS 3 Zrotation Xrotation Yrotation
          JOINT left_humerus
          {
            OFFSET 29.39168 -1.063119 -2.237045
            CHANNELS 3 Zrotation Xrotation Yrotation
            JOINT left_radius
            {
              OFFSET 24.59957 -0.9528479 0.9047498
              CHANNELS 3 Zrotation Xrotation Yrotation
              End Site
              {
                OFFSET 15 -0 -0
              }
            }
          }
        }
      }
    }
  }
}
MOTION
Frames: 11
Frame Time: 0.0416666666667
-580.1477 142.8225 265.6946 9.055802 -0.3729829 95.95553 6.473982 12.54774 1.288797 -0 17.13299 -0 -9.108892 -9.7676 -1.460762 3.889749 -15.66102 -2.423166 -0 10.31759 -0 2.496092 -1.17435 14.43117 1.605342 -4.068548 8.078492 0.4591711 17.32147 -6.214738 0.5468849 18.23286 2.550438 0.880832 -18.43873 3.64085 -0.3658365 -31.67761 13.74527 87.88703 16.81886 -10.66055 -0 0 30.26927 -24.3723 17.06904 15.03915 2.624976 -23.39831 -8.085137 -93.68882 7.912024 38.182 0 0 -9.243731 7.885118 14.07041 3.963999
-574.5219 142.7438 263.9152 9.050837 -0.4793516 95.28795 6.473982 12.54774 1.288797 -0 17.13299 -0 -9.108892 -9.7676 -1.460762 3.889749 -15.66102 -2.423166 -0 10.31759 -0 2.496092 -1.17435 14.43117 1.605342 -4.068548 8.078492 0.4591711 17.32147 -6.214738 0.5468849 18.23286 2.550438 0.880832 -18.43873 3.64085 -0.3658365 -31.67761 13.74527 87.88703 16.81886 -10.66055 -0 0 30.26927 -24.3723 17.06904 15.03915 2.624976 -23.39831 -8.085137 -93.68882 7.912024 38.182 0 0 -9.243731 7.885118 14.07041 3.963999
-568.8755 142.665 262.2022 9.044632 -0.5856551 94.62036 6.473982 12.54774 1.288797 -0 17.13299 -0 -9.108892 -9.7676 -1.460762 3.889749 -15.66102 -2.423166 -0 10.31759 -0 2.496092 -1.17435 14.43117 1.605342 -4.068548 8.078492 0.4591711 17.32147 -6.214738 0.5468849 18.23286 2.550438 0.880832 -18.43873 3.64085 -0.3658365 -31.67761 13.74527 87.88703 16.81886 -10.66055 -0 0 30.26927 -24.3723 17.06904 15.03915 2.624976 -23.39831 -8.085137 -93.68882 7.912024 38.182 0 0 -9.243731 7.885118 14.07041 3.963999
-563.2093 142.5862 260.556 9.037189 -0.6918792 93.95274 6.473982 12.54774 1.288797 -0 17.13299 -0 -9.108892 -9.7676 -1.460762 3.889749 -15.66102 -2.423166 -0 10.31759 -0 2.496092 -1.17435 14.43117 1.605342 -4.068548 8.078492 0.4591711 17.32147 -6.214738 0.5468849 18.23286 2.550438 0.880832 -18.43873 3.64085 -0.3658365 -31.67761 13.74527 87.88703 16.81886 -10.66055 -0 0 30.26927 -24.3723 17.06904 15.03915 2.624976 -23.39831 -8.085137 -93.68882 7.912024 38.182 0 0 -9.243731 7.885118 14.07041 3.963999
-557.5241 142.5074 258.9768 9.028509 -0.7980093 93.28509 6.473982 12.54774 1.288797 -0 17.13299 -0 -9.108892 -9.7676 -1.460762 3.889749 -15.66102 -2.423166 -0 10.31759 -0 2.496092 -1.17435 14.43117 1.605342 -4.068548 8.078492 0.4591711 17.32147 -6.214738 0.5468849 18.23286 2.550438 0.880832 -18.43873 3.64085 -0.3658365 -31.67761 13.74527 87.88703 16.81886 -10.66055 -0 0 30.26927 -24.3723 17.06904 15.03915 2.624976 -23.39831 -8.085137 -93.68882 7.912024 38.182 0 0 -9.243731 7.885118 14.07041 3.963999
-551.8206 142.4286 257.4647 9.018592 -0.904031 92.6174 6.473982 12.54774 1.288797 -0 17.13299 -0 -9.108892 -9.7676 -1.460762 3.889749 -15.66102 -2.423166 -0 10.31759 -0 2.496092 -1.17435 14.43117 1.605342 -4.068548 8.078492 0.4591711 17.32147 -6.214738 0.5468849 18.23286 2.550438 0.880832 -18.43873 3.64085 -0.3658365 -31.67761 13.74527 87.88703 16.81886 -10.66055 -0 0 30.26927 -24.3723 17.06904 15.03915 2.624976 -23.39831 -8.085137 -93.68882 7.912024 38.182 0 0 -9.243731 7.885118 14.07041 3.963999
-546.0997 142.3499 256.02 9.00744 -1.00993 91.94968 6.473982 12.54774 1.288797 -0 17.13299 -0 -9.108892 -9.7676 -1.460762 3.889749 -15.66102 -2.423166 -0 10.31759 -0 2.496092 -1.17435 14.43117 1.605342 -4.068548 8.078492 0.4591711 17.32147 -6.214738 0.5468849 18.23286 2.550438 0.880832 -18.43873 3.64085 -0.3658365 -31.67761 13.74527 87.88703 16.81886 -10.66055 -0 0 30.26927 -24.3723 17.06904 15.03915 2.624976 -23.39831 -8.085137 -93.68882 7.912024 38.182 0 0 -9.243731 7.885118 14.07041 3.963999
-540.3621 142.2711 254.6429 8.995053 -1.115692 91.28191 6.473982 12.54774 1.288797 -0 17.13299 -0 -9.108892 -9.7676 -1.460762 3.889749 -15.66102 -2.423166 -0 10.31759 -0 2.496092 -1.17435 14.43117 1.605342 -4.068548 8.078492 0.4591711 17.32147 -6.214738 0.5468849 18.23286 2.550438 0.880832 -18.43873 3.64085 -0.3658365 -31.67761 13.74527 87.88703 16.81886 -10.66055 -0 0 30.26927 -24.3723 17.06904 15.03915 2.624976 -23.39831 -8.085137 -93.68882 7.912024 38.182 0 0 -9.243731 7.885118 14.07041 3.963999
-534.6087 142.1923 253.3336 8.981435 -1.221302 90.6141 6.473982 12.54774 1.288797 -0 17.13299 -0 -9.108892 -9.7676 -1.460762 3.889749 -15.66102 -2.423166 -0 10.31759 -0 2.496092 -1.17435 14.43117 1.605342 -4.068548 8.078492 0.4591711 17.32147 -6.214738 0.5468849 18.23286 2.550438 0.880832 -18.43873 3.64085 -0.3658365 -31.67761 13.74527 87.88703 16.81886 -10.66055 -0 0 30.26927 -24.3723 17.06904 15.03915 2.624976 -23.39831 -8.085137 -93.68882 7.912024 38.182 0 0 -9.243731 7.885118 14.07041 3.963999
-528.8403 142.1135 252.0923 8.966585 -1.326747 89.94623 6.473982 12.54774 1.288797 -0 17.13299 -0 -9.108892 -9.7676 -1.460762 3.889749 -15.66102 -2.423166 -0 10.31759 -0 2.496092 -1.17435 14.43117 1.605342 -4.068548 8.078492 0.4591711 17.32147 -6.214738 0.5468849 18.23286 2.550438 0.880832 -18.43873 3.64085 -0.3658365 -31.67761 13.74527 87.88703 16.81886 -10.66055 -0 0 30.26927 -24.3723 17.06904 15.03915 2.624976 -23.39831 -8.085137 -93.68882 7.912024 38.182 0 0 -9.243731 7.885118 14.07041 3.963999
-523.0576 142.0347 250.9191 8.950506 -1.432011 89.2783 6.473982 12.54774 1.288797 -0 17.13299 -0 -9.108892 -9.7676 -1.460762 3.889749 -15.66102 -2.423166 -0 10.31759 -0 2.496092 -1.17435 14.43117 1.605342 -4.068548 8.078492 0.4591711 17.32147 -6.214738 0.5468849 18.23286 2.550438 0.880832 -18.43873 3.64085 -0.3658365 -31.67761 13.74527 87.88703 16.81886 -10.66055 -0 0 30.26927 -24.3723 17.06904 15.03915 2.624976 -23.39831 -8.085137 -93.68882 7.912024 38.182 0 0 -9.243731 7.885118 14.07041 3.963999
